<svg width="20" height="25" viewBox="0 0 20 25" fill="none" xmlns="http://www.w3.org/2000/svg">
<path d="M12.76 4.16667C13.9221 4.16749 15.0362 4.50446 15.8579 5.10362C16.6796 5.70277 17.1417 6.51517 17.1429 7.3625C17.1429 7.63877 17.2934 7.90372 17.5613 8.09907C17.8292 8.29442 18.1925 8.40417 18.5714 8.40417C18.9503 8.40417 19.3137 8.29442 19.5816 8.09907C19.8495 7.90372 20 7.63877 20 7.3625V7.29167C20 7.27187 20 7.25417 20 7.23438C19.9523 5.85701 19.1688 4.54769 17.8163 3.58547C16.4639 2.62326 14.6496 2.08425 12.76 2.08333H11.4286V1.04167C11.4286 0.765399 11.2781 0.500448 11.0102 0.305097C10.7422 0.109747 10.3789 0 10 0C9.62112 0 9.25776 0.109747 8.98985 0.305097C8.72194 0.500448 8.57143 0.765399 8.57143 1.04167V2.08333H7.24C5.52188 2.08467 3.86041 2.53149 2.55256 3.34394C1.24471 4.15638 0.375728 5.28148 0.100933 6.51815C-0.173862 7.75482 0.163444 9.02244 1.05256 10.0944C1.94168 11.1664 3.32465 11.9729 4.95429 12.3698L8.57143 13.25V20.8333H7.24C6.07794 20.8325 4.9638 20.4955 4.14211 19.8964C3.32041 19.2972 2.85828 18.4848 2.85714 17.6375C2.85714 17.3612 2.70663 17.0963 2.43872 16.9009C2.17081 16.7056 1.80745 16.5958 1.42857 16.5958C1.04969 16.5958 0.686328 16.7056 0.418419 16.9009C0.15051 17.0963 0 17.3612 0 17.6375V17.7083C0 17.7281 0 17.7458 0 17.7656C0.0476762 19.143 0.831232 20.4523 2.18366 21.4145C3.53609 22.3767 5.35044 22.9157 7.24 22.9167H8.57143V23.9583C8.57143 24.2346 8.72194 24.4996 8.98985 24.6949C9.25776 24.8903 9.62112 25 10 25C10.3789 25 10.7422 24.8903 11.0102 24.6949C11.2781 24.4996 11.4286 24.2346 11.4286 23.9583V22.9167H12.76C14.4781 22.9153 16.1396 22.4685 17.4474 21.6561C18.7553 20.8436 19.6243 19.7185 19.8991 18.4818C20.1739 17.2452 19.8366 15.9776 18.9474 14.9056C18.0583 13.8336 16.6754 13.0271 15.0457 12.6302L11.4286 11.75V4.16667H12.76ZM14.1457 14.6052C15.1335 14.8449 15.9719 15.3332 16.511 15.9825C17.0501 16.6319 17.2546 17.4 17.0879 18.1493C16.9212 18.8986 16.3942 19.5801 15.6012 20.0719C14.8082 20.5637 13.801 20.8336 12.76 20.8333H11.4286V13.9448L14.1457 14.6052ZM8.57143 11.0552L5.85714 10.3948C4.86963 10.1551 4.0313 9.66705 3.49219 9.0179C2.95308 8.36875 2.74838 7.60089 2.91472 6.85174C3.08105 6.1026 3.60757 5.42106 4.40004 4.92911C5.19252 4.43715 6.19922 4.16688 7.24 4.16667H8.57143V11.0552Z" fill="url(#paint0_linear_32_535)"/>
<defs>
<linearGradient id="paint0_linear_32_535" x1="10" y1="0" x2="10" y2="25" gradientUnits="userSpaceOnUse">
<stop stop-color="#2C7EEA"/>
<stop offset="1" stop-color="#194784" stop-opacity="0.5"/>
</linearGradient>
</defs>
</svg>
